<?xml version="1.0" encoding="utf-8"?>
<!-- Generator: Adobe Illustrator 16.0.0, SVG Export Plug-In . SVG Version: 6.00 Build 0)  -->
<!DOCTYPE svg PUBLIC "-//W3C//DTD SVG 1.1//EN" "http://www.w3.org/Graphics/SVG/1.1/DTD/svg11.dtd">
<svg version="1.1" id="Capa_1" xmlns="http://www.w3.org/2000/svg" xmlns:xlink="http://www.w3.org/1999/xlink" x="0px" y="0px"
	 width="512px" height="512px" viewBox="0 0 512 512" enable-background="new 0 0 512 512" xml:space="preserve">
<path fill="#FF841A" d="M493.254,210.745c24.994,24.994,24.994,65.516,0,90.509c-24.993,24.994-65.516,24.994-90.51,0
	c-24.993-24.993-24.993-65.516,0-90.509C427.738,185.751,468.261,185.751,493.254,210.745"/>
<path fill="#FF841A" d="M301.256,210.745c24.992,24.994,24.992,65.516,0,90.509c-24.994,24.994-65.517,24.994-90.51,0
	c-24.993-24.993-24.993-65.516,0-90.509C235.739,185.751,276.262,185.751,301.256,210.745"/>
<path fill="#FF841A" d="M109.255,210.745c24.994,24.994,24.994,65.516,0,90.509c-24.994,24.994-65.516,24.994-90.51,0
	c-24.993-24.993-24.993-65.516,0-90.509C43.739,185.751,84.262,185.751,109.255,210.745"/>
</svg>
