<?xml version="1.0" encoding="utf-8"?>
<!-- Generator: Adobe Illustrator 16.0.0, SVG Export Plug-In . SVG Version: 6.00 Build 0)  -->
<!DOCTYPE svg PUBLIC "-//W3C//DTD SVG 1.1//EN" "http://www.w3.org/Graphics/SVG/1.1/DTD/svg11.dtd">
<svg version="1.1" id="Layer_1" xmlns="http://www.w3.org/2000/svg" xmlns:xlink="http://www.w3.org/1999/xlink" x="0px" y="0px"
	 width="390.601px" height="512px" viewBox="60.7 0 390.601 512" enable-background="new 60.7 0 390.601 512" xml:space="preserve">
<g>
	<path fill="#FF841A" d="M371.231,181.492l53.954-53.954L297.646,0L127.68,169.967l11.526,11.526H60.7v330.508h390.601V181.493
		L371.231,181.492L371.231,181.492z M297.646,42.492l85.048,85.047L268.648,241.584H241.79l-71.618-71.618L297.646,42.492z
		 M421.255,481.954H90.747V331.723h330.508V481.954z M90.747,301.677v-90.139h78.505l30.046,30.046h-48.459v30.046h210.323v-30.046
		h-50.023l30.047-30.046h80.069v90.139H90.747z"/>
	<path fill="#FF841A" d="M329.605,138.007l-21.426-21.064l-52.479,53.38l-21.695-20.97l-20.882,21.603l43.115,41.676
		L329.605,138.007z"/>
</g>
</svg>
