<?xml version="1.0" encoding="utf-8"?>
<!-- Generator: Adobe Illustrator 16.0.0, SVG Export Plug-In . SVG Version: 6.00 Build 0)  -->
<!DOCTYPE svg PUBLIC "-//W3C//DTD SVG 1.1//EN" "http://www.w3.org/Graphics/SVG/1.1/DTD/svg11.dtd">
<svg version="1.1" id="Capa_1" xmlns="http://www.w3.org/2000/svg" xmlns:xlink="http://www.w3.org/1999/xlink" x="0px" y="0px"
	 width="512px" height="512px" viewBox="0 0 512 512" enable-background="new 0 0 512 512" xml:space="preserve">
<g>
	<path fill="#FF841A" d="M111.436,353.381c-26.018,0-47.185,21.166-47.185,47.184s21.167,47.185,47.185,47.185
		c26.018,0,47.184-21.167,47.184-47.185S137.453,353.381,111.436,353.381z M111.436,417.632c-9.411,0-17.067-7.656-17.067-17.067
		c0-9.41,7.656-17.066,17.067-17.066c9.411,0,17.066,7.656,17.066,17.066C128.502,409.976,120.846,417.632,111.436,417.632z"/>
	<path fill="#FF841A" d="M432.69,417.632c-8.309,0-15.059,6.75-15.059,15.059s6.75,15.059,15.059,15.059s15.059-6.749,15.059-15.059
		S440.999,417.632,432.69,417.632z"/>
	<path fill="#FF841A" d="M463.842,224.878h-48.218v-73.256l41.481-27.658L440.4,98.906L385.506,135.5v89.379h-76.74L268.609,0
		H32.125v224.878H0v175.686C0,462.015,49.985,512,111.436,512c44.584,0,83.134-26.333,100.934-64.251h142.466
		C361.894,484.302,394.109,512,432.69,512c43.73,0,79.31-35.579,79.31-79.31V282.674L463.842,224.878z M278.166,224.878h-87.421
		V94.369h64.121L278.166,224.878z M62.243,30.118h181.147l6.094,34.133H96.376v160.627H62.243V30.118z M160.627,94.369v130.51
		h-34.133V94.369H160.627z M111.436,481.883c-44.835,0-81.318-36.483-81.318-81.318s36.482-81.317,81.318-81.317
		c44.835,0,81.317,36.482,81.317,81.317S156.271,481.883,111.436,481.883z M432.69,481.883c-27.126,0-49.192-22.066-49.192-49.192
		s22.066-49.192,49.192-49.192s49.192,22.066,49.192,49.192S459.816,481.883,432.69,481.883z M481.883,370.548
		c-46.51-36.885-115.796-11.19-127.047,47.084H221.565c10.436-68.018-42.374-128.503-110.13-128.503
		c-32.045,0-60.968,13.604-81.318,35.328v-69.461h419.609l32.156,38.58V370.548z"/>
	<path fill="#FF841A" d="M247.969,289.129h120.471v30.118H247.969V289.129z"/>
</g>
</svg>
