<?xml version="1.0" encoding="utf-8"?>
<!-- Generator: Adobe Illustrator 16.0.0, SVG Export Plug-In . SVG Version: 6.00 Build 0)  -->
<!DOCTYPE svg PUBLIC "-//W3C//DTD SVG 1.1//EN" "http://www.w3.org/Graphics/SVG/1.1/DTD/svg11.dtd">
<svg version="1.1" id="Capa_1" xmlns="http://www.w3.org/2000/svg" xmlns:xlink="http://www.w3.org/1999/xlink" x="0px" y="0px"
	 width="545.364px" height="600px" viewBox="127.319 0 545.364 600" enable-background="new 127.319 0 545.364 600"
	 xml:space="preserve">
<g transform="translate(1 1)">
	<g>
		<g>
			<path fill="#FF841A" d="M644.413,326.268c-15.06,0-27.269,12.209-27.269,27.269c0,45.23-36.574,81.804-81.805,81.804H317.196
				v-81.804c0-22.864-26.448-35.575-44.302-21.293L136.553,441.315c-13.645,10.917-13.645,31.67,0,42.586l136.341,109.073
				c17.854,14.283,44.302,1.57,44.302-21.293v-81.805h218.146c75.349,0,136.341-60.991,136.341-136.341
				C671.682,338.477,659.473,326.268,644.413,326.268z M262.66,514.946l-65.422-52.338l65.422-52.337V514.946z"/>
			<path fill="#FF841A" d="M153.587,271.732c15.06,0,27.268-12.209,27.268-27.269c0-45.23,36.574-81.804,81.804-81.804h218.145
				v81.804c0,22.864,26.448,35.576,44.302,21.293l136.342-109.073c13.645-10.917,13.645-31.669,0-42.585L525.106,5.026
				c-17.854-14.283-44.302-1.571-44.302,21.293v81.804H262.66c-75.349,0-136.341,60.99-136.341,136.341
				C126.319,259.523,138.528,271.732,153.587,271.732z M535.34,83.054l65.422,52.337l-65.422,52.338V83.054z"/>
		</g>
	</g>
</g>
</svg>
