<?xml version="1.0" encoding="utf-8"?>
<!-- Generator: Adobe Illustrator 16.0.0, SVG Export Plug-In . SVG Version: 6.00 Build 0)  -->
<!DOCTYPE svg PUBLIC "-//W3C//DTD SVG 1.1//EN" "http://www.w3.org/Graphics/SVG/1.1/DTD/svg11.dtd">
<svg version="1.1" id="Capa_1" xmlns="http://www.w3.org/2000/svg" xmlns:xlink="http://www.w3.org/1999/xlink" x="0px" y="0px"
	 width="600px" height="600px" viewBox="100 0 600 600" enable-background="new 100 0 600 600" xml:space="preserve">
<g transform="translate(1 1)">
	<g>
		<path fill="#FF841A" d="M690.816,255.501L418.419,7.868l-2.603-2.366c-1.788-1.625-3.752-2.946-5.828-3.962
			c-0.092-0.044-0.188-0.078-0.281-0.122c-6.764-3.208-14.651-3.208-21.417,0c-0.092,0.043-0.188,0.076-0.281,0.122
			c-2.075,1.016-4.039,2.336-5.828,3.962l-2.565,2.332L107.183,255.501c-10.216,9.287-10.97,25.1-1.682,35.316
			c9.287,10.216,25.099,10.97,35.316,1.682L149,285.06V574c0,13.808,11.192,25,25,25h125h200H624c13.807,0,25-11.192,25-25V285.06
			l8.183,7.439c10.217,9.289,26.027,8.535,35.315-1.682C701.787,280.601,701.033,264.79,690.816,255.501z M349,549.001v-150
			C349,371.383,371.381,349,399,349c27.619,0,50,22.382,50,50.001v150H349z M599,549.001h-99.999v-150
			C499.001,343.768,454.232,299,399,299c-55.233,0-100,44.768-100,100v150H199V239.609L399,57.787l200,181.822V549.001z"/>
	</g>
</g>
</svg>
