<?xml version="1.0" encoding="utf-8"?>
<!-- Generator: Adobe Illustrator 16.0.0, SVG Export Plug-In . SVG Version: 6.00 Build 0)  -->
<!DOCTYPE svg PUBLIC "-//W3C//DTD SVG 1.1//EN" "http://www.w3.org/Graphics/SVG/1.1/DTD/svg11.dtd">
<svg version="1.1" id="Bold" xmlns="http://www.w3.org/2000/svg" xmlns:xlink="http://www.w3.org/1999/xlink" x="0px" y="0px"
	 width="512px" height="512px" viewBox="0 0 512 512" enable-background="new 0 0 512 512" xml:space="preserve">
<path fill="#FF8804" d="M256,512c141.419,0,256-114.581,256-256C512,114.582,397.419,0,256,0C114.582,0,0,114.582,0,256
	C0,397.419,114.582,512,256,512z M117.141,250.453l246.827-95.168c11.456-4.139,21.462,2.795,17.749,20.118l0.021-0.021
	l-42.026,197.995c-3.114,14.037-11.456,17.45-23.125,10.837l-64-47.168l-30.87,29.739c-3.413,3.413-6.293,6.293-12.907,6.293
	l4.544-65.131l118.614-107.157c5.162-4.544-1.152-7.104-7.958-2.581l-146.582,92.288l-63.189-19.712
	C100.523,266.432,100.224,257.066,117.141,250.453L117.141,250.453z"/>
</svg>
