<?xml version="1.0" encoding="utf-8"?>
<!-- Generator: Adobe Illustrator 16.0.0, SVG Export Plug-In . SVG Version: 6.00 Build 0)  -->
<!DOCTYPE svg PUBLIC "-//W3C//DTD SVG 1.1//EN" "http://www.w3.org/Graphics/SVG/1.1/DTD/svg11.dtd">
<svg version="1.1" id="Layer_1" xmlns="http://www.w3.org/2000/svg" xmlns:xlink="http://www.w3.org/1999/xlink" x="0px" y="0px"
	 width="512px" height="512px" viewBox="0 0 512 512" enable-background="new 0 0 512 512" xml:space="preserve">
<path fill="#FF8804" d="M256,0C114.637,0,0,114.637,0,256s114.637,256,256,256s256-114.637,256-256S397.363,0,256,0z
	 M372.887,199.602c0.113,2.52,0.168,5.051,0.168,7.594c0,77.645-59.102,167.18-167.184,167.184h0.004h-0.004
	c-33.184,0-64.063-9.727-90.066-26.395c4.598,0.543,9.277,0.813,14.016,0.813c27.531,0,52.867-9.391,72.98-25.152
	c-25.723-0.477-47.41-17.465-54.895-40.813c3.582,0.688,7.266,1.063,11.043,1.063c5.363,0,10.559-0.723,15.496-2.07
	c-26.887-5.383-47.141-29.145-47.141-57.598c0-0.266,0-0.504,0.008-0.75c7.918,4.402,16.973,7.051,26.613,7.348
	c-15.777-10.527-26.148-28.523-26.148-48.91c0-10.766,2.91-20.852,7.957-29.535c28.977,35.555,72.281,58.938,121.117,61.395
	c-1.008-4.305-1.527-8.789-1.527-13.398c0-32.438,26.316-58.754,58.766-58.754c16.902,0,32.168,7.145,42.891,18.566
	c13.387-2.641,25.957-7.531,37.313-14.262c-4.395,13.715-13.707,25.223-25.84,32.5c11.887-1.422,23.215-4.574,33.742-9.254
	C394.332,180.957,384.359,191.309,372.887,199.602z"/>
</svg>
